<svg width="115" height="34" viewBox="0 0 115 34" fill="none" xmlns="http://www.w3.org/2000/svg">
<g id="Company logo" clip-path="url(#clip0_0_76)">
<g id="Vector">
<path d="M33.8109 11.1575H38.6138C41.2743 11.1575 42.6555 12.2483 42.6555 14.2966V14.3986C42.6934 14.9989 42.5146 15.5928 42.1517 16.0724C41.7888 16.552 41.2658 16.8854 40.6778 17.012C41.3819 17.074 42.0332 17.4112 42.4901 17.9504C42.9471 18.4897 43.1729 19.1874 43.1185 19.8922V19.9628C43.1185 22.1994 41.651 23.3766 38.8336 23.3766H33.8109V11.1575ZM38.1665 16.1723C39.5006 16.1723 40.0264 15.6935 40.0264 14.6027V14.5321C40.0264 13.5118 39.4457 13.0488 38.1508 13.0488H36.5106V16.188L38.1665 16.1723ZM38.4019 21.4539C39.7675 21.4539 40.3874 20.8339 40.3874 19.7274V19.6567C40.3874 18.5266 39.7675 17.9537 38.2685 17.9537H36.5106V21.4617L38.4019 21.4539Z" fill="#8C9498"/>
<path d="M43.8406 20.8889C43.8406 18.8013 45.7477 18.0165 48.4866 18.0165H49.4911V17.6634C49.4911 16.6039 49.1693 16.0232 48.0392 16.0232C47.8563 16.0015 47.6709 16.0174 47.4944 16.07C47.3178 16.1227 47.1539 16.2109 47.0128 16.3293C46.8716 16.4476 46.7562 16.5936 46.6736 16.7583C46.591 16.9229 46.543 17.1028 46.5325 17.2867H44.1781C44.3351 15.1678 46.0066 14.226 48.1962 14.226C50.3858 14.226 51.9318 15.1128 51.9318 17.5378V23.3609H49.5225V22.2858C49.2201 22.7118 48.8125 23.0522 48.3393 23.2736C47.8662 23.4951 47.3437 23.5901 46.8228 23.5493C45.2062 23.5493 43.8406 22.7645 43.8406 20.8889ZM49.4911 20.2375V19.4527H48.5337C47.0975 19.4527 46.2656 19.7666 46.2656 20.7162C46.2656 21.3676 46.658 21.7992 47.5605 21.7992C48.6514 21.8306 49.4911 21.2263 49.4911 20.2375Z" fill="#8C9498"/>
<path d="M52.9754 20.5592H55.2827C55.3847 21.344 55.7771 21.8306 56.8523 21.8306C57.8097 21.8306 58.257 21.4696 58.257 20.8496C58.257 20.2296 57.7234 19.9785 56.4442 19.798C54.0898 19.437 53.1481 18.7542 53.1481 17.012C53.1481 15.2698 54.8589 14.226 56.6796 14.226C58.6651 14.226 60.1484 14.948 60.3681 16.9963H58.1001C57.9667 16.2586 57.5507 15.9211 56.7032 15.9211C55.8556 15.9211 55.4396 16.2978 55.4396 16.8394C55.4396 17.3809 55.8634 17.6241 57.1583 17.8125C59.395 18.1343 60.6271 18.6993 60.6271 20.6142C60.6271 22.5291 59.2302 23.5493 56.868 23.5493C54.5058 23.5493 53.0617 22.4898 52.9754 20.5592Z" fill="#8C9498"/>
<path d="M61.2628 19.0053V18.8719C61.233 18.2586 61.331 17.6458 61.5505 17.0723C61.7699 16.4988 62.1061 15.9772 62.5377 15.5404C62.9693 15.1037 63.4869 14.7613 64.0578 14.535C64.6286 14.3088 65.2402 14.2035 65.8538 14.226C68.1611 14.226 70.2094 15.5758 70.2094 18.7699V19.4527H63.7977C63.8605 20.9359 64.6688 21.807 66.0108 21.807C67.1566 21.807 67.7216 21.3126 67.8786 20.5592H70.2329C69.9426 22.4898 68.4044 23.565 65.9637 23.565C63.2248 23.5493 61.2628 21.862 61.2628 19.0053ZM67.8001 17.9302C67.7216 16.5803 67.031 15.9682 65.8538 15.9682C65.3239 15.9657 64.8135 16.1687 64.4301 16.5346C64.0467 16.9004 63.82 17.4007 63.7977 17.9302H67.8001Z" fill="#8C9498"/>
<path d="M70.8608 19.0053V18.8719C70.8309 18.2572 70.9293 17.643 71.1497 17.0684C71.3701 16.4938 71.7077 15.9714 72.141 15.5344C72.5743 15.0974 73.0938 14.7553 73.6665 14.5301C74.2393 14.3048 74.8526 14.2012 75.4675 14.2259C77.5393 14.2259 79.4464 15.1284 79.674 17.6947H77.3196C77.3039 17.4744 77.2442 17.2595 77.1438 17.0628C77.0435 16.8661 76.9047 16.6915 76.7356 16.5495C76.5665 16.4075 76.3706 16.3009 76.1595 16.2361C75.9484 16.1713 75.7264 16.1496 75.5067 16.1722C74.2275 16.1722 73.3721 17.1296 73.3721 18.8405V18.9739C73.3721 20.771 74.1569 21.6893 75.5617 21.6893C75.8007 21.703 76.04 21.6691 76.2658 21.5894C76.4916 21.5098 76.6992 21.386 76.8767 21.2253C77.0542 21.0646 77.1979 20.8702 77.2996 20.6535C77.4012 20.4367 77.4587 20.2019 77.4687 19.9627H79.7054C79.5719 22.0816 78.0338 23.5492 75.4361 23.5492C72.8385 23.5492 70.8608 21.9247 70.8608 19.0053Z" fill="#8C9498"/>
<path d="M80.2784 20.8888C80.2784 18.8013 82.1854 18.0165 84.9165 18.0165H85.9288V17.6634C85.9288 16.6039 85.5992 16.0231 84.477 16.0231C84.2929 15.9991 84.1057 16.0133 83.9273 16.0649C83.7489 16.1165 83.5831 16.2043 83.4402 16.3229C83.2973 16.4415 83.1804 16.5883 83.0969 16.7541C83.0133 16.92 82.9648 17.1012 82.9545 17.2867H80.6001C80.7571 15.1677 82.4287 14.226 84.6104 14.226C86.7921 14.226 88.3539 15.1128 88.3539 17.5378V23.3609H85.9445V22.2858C85.6422 22.7118 85.2345 23.0521 84.7614 23.2736C84.2882 23.495 83.7657 23.59 83.2449 23.5493C81.6753 23.5493 80.2784 22.7645 80.2784 20.8888ZM85.9288 20.2375V19.4527H84.9871C83.5509 19.4527 82.7112 19.7666 82.7112 20.7162C82.7112 21.3676 83.1115 21.7992 84.014 21.7992C85.1205 21.8306 85.9602 21.2263 85.9602 20.2375H85.9288Z" fill="#8C9498"/>
<path d="M90.0959 14.3986H92.568V15.7641C92.8375 15.279 93.2342 14.8765 93.7154 14.5999C94.1966 14.3233 94.7441 14.1832 95.299 14.1946C95.8286 14.1522 96.3577 14.2821 96.8075 14.565C97.2572 14.8478 97.6035 15.2684 97.7947 15.7641C98.1243 15.2719 98.5722 14.8702 99.0973 14.596C99.6225 14.3217 100.208 14.1837 100.8 14.1946C102.456 14.1946 103.736 15.2383 103.736 17.6084V23.3295H101.279V17.9145C101.279 16.7687 100.769 16.2585 99.8744 16.2585C99.6364 16.2482 99.3989 16.2893 99.1783 16.3791C98.9576 16.4689 98.7589 16.6052 98.5958 16.7788C98.4326 16.9524 98.3089 17.1591 98.2329 17.3849C98.1569 17.6107 98.1306 17.8502 98.1557 18.0871V23.3609H95.6914V17.9145C95.6914 16.7687 95.1656 16.2585 94.2945 16.2585C94.0559 16.247 93.8176 16.2873 93.596 16.3765C93.3743 16.4658 93.1747 16.602 93.0106 16.7757C92.8466 16.9494 92.7221 17.1566 92.6457 17.3829C92.5693 17.6093 92.5428 17.8495 92.568 18.0871V23.3609H90.0959V14.3986Z" fill="#8C9498"/>
<path d="M105.431 14.3986H107.911V15.8034C108.206 15.312 108.624 14.9056 109.123 14.6237C109.622 14.3417 110.186 14.1939 110.76 14.1946C112.949 14.1946 114.683 15.8191 114.683 18.7699V18.9111C114.683 21.862 113.012 23.5179 110.76 23.5179C110.187 23.5414 109.618 23.4075 109.116 23.1308C108.614 22.8541 108.197 22.4451 107.911 21.9483V26.4059H105.431V14.3986ZM112.141 18.7934C112.141 16.9806 111.254 16.0938 110.006 16.0938C108.758 16.0938 107.824 16.9963 107.824 18.7934V18.9268C107.824 20.7162 108.68 21.5873 110.03 21.5873C111.38 21.5873 112.141 20.6769 112.141 18.9582V18.7934Z" fill="#8C9498"/>
<path fill-rule="evenodd" clip-rule="evenodd" d="M15.4626 6.89213C8.49885 6.89213 4.86716 12.7906 2.83377 18.5558C2.58796 19.2527 1.82374 19.6184 1.12682 19.3726C0.628356 19.1968 0.299333 18.7557 0.242311 18.2638C0.219609 18.068 0.240019 17.8641 0.310012 17.6656C2.37322 11.8159 6.58941 4.216 15.4626 4.216C20.1007 4.216 23.4204 7.28435 25.5674 10.9706C27.7201 14.6665 28.8678 19.2429 29.1265 22.9379C29.1451 23.2035 29.084 23.4686 28.9511 23.6992C27.7077 25.8576 25.6391 27.2642 23.2812 28.1257C20.9291 28.9851 18.2045 29.3362 15.4734 29.3371C13.1531 29.3733 10.8522 28.9089 8.72744 27.9756C6.59935 27.0407 4.69816 25.6575 3.15382 23.9203C2.82528 23.5508 2.72734 23.0302 2.89911 22.5665L2.90012 22.5638L2.90204 22.5586L2.90858 22.5412L2.93227 22.4787C2.9527 22.4252 2.98231 22.3485 3.02047 22.252C3.09673 22.059 3.20741 21.7857 3.34735 21.4587C3.62599 20.8075 4.0263 19.93 4.50718 19.044C4.98173 18.1696 5.56528 17.2296 6.22151 16.489C6.81975 15.8139 7.74963 14.9914 8.93983 14.9833L8.9489 14.9833C9.78993 14.9833 10.4808 15.3684 10.9781 15.7385C11.4793 16.1117 11.9345 16.5859 12.2993 16.9719C12.3412 17.0162 12.3819 17.0593 12.4214 17.1013C12.7612 17.4615 13.021 17.737 13.2678 17.9433C13.2956 17.9665 13.3211 17.9869 13.3443 18.0049C13.4246 17.9229 13.5204 17.8154 13.6306 17.6787C14.0228 17.1925 14.4633 16.5076 14.8896 15.7744C15.3102 15.0509 15.6931 14.322 15.9722 13.7707C16.1113 13.496 16.2235 13.2675 16.3006 13.1086C16.3391 13.0291 16.3688 12.9672 16.3885 12.9257L16.4106 12.8791L16.4159 12.868L16.417 12.8656C16.7307 12.1966 17.5275 11.9082 18.1966 12.2218C18.8657 12.5354 19.1539 13.3321 18.8402 14.0013L18.8373 14.0074L18.8304 14.0222L18.8047 14.0764C18.7824 14.1231 18.75 14.1907 18.7086 14.2761C18.6259 14.4468 18.5068 14.6892 18.3598 14.9795C18.0667 15.5583 17.6585 16.3362 17.2031 17.1195C16.7534 17.893 16.233 18.715 15.7136 19.3589C15.456 19.6782 15.164 19.9976 14.8482 20.2487C14.5691 20.4707 14.0768 20.7986 13.4457 20.7986C12.6112 20.7986 11.9537 20.3326 11.5518 19.9968C11.1731 19.6803 10.7947 19.278 10.4768 18.9401C10.4349 18.8955 10.394 18.852 10.3543 18.81C9.97747 18.4112 9.66947 18.1006 9.38006 17.8852C9.12641 17.6964 8.9969 17.6653 8.95971 17.6603C8.95971 17.6603 8.95704 17.6613 8.9547 17.6622C8.91379 17.6766 8.668 17.7632 8.22445 18.2638C7.76456 18.7828 7.29404 19.5193 6.85922 20.3205C6.43072 21.11 6.06636 21.907 5.80767 22.5115C5.77433 22.5894 5.74285 22.6639 5.71331 22.7345C6.89094 23.9079 8.27738 24.8549 9.80374 25.5254C11.5791 26.3053 13.502 26.6927 15.4409 26.6611L15.4626 26.661C17.9939 26.661 20.3899 26.333 22.3628 25.6121C24.1779 24.949 25.5624 23.9825 26.4231 22.6993C26.1314 19.411 25.084 15.4577 23.255 12.3175C21.3407 9.03086 18.7431 6.89213 15.4626 6.89213ZM13.1243 18.1951C13.1243 18.1951 13.1302 18.1906 13.1414 18.1849C13.1299 18.1927 13.1243 18.1951 13.1243 18.1951Z" fill="#8C9498"/>
</g>
</g>
<defs>
<clipPath id="clip0_0_76">
<rect width="114.552" height="33.3241" fill="white" transform="translate(0.233459)"/>
</clipPath>
</defs>
</svg>
