<svg width="16" height="18" viewBox="0 0 16 18" fill="none" xmlns="http://www.w3.org/2000/svg">
<g id="instagram logo" clip-path="url(#clip0_29_1630)">
<path id="Vector" d="M8.00331 4.95537C5.73189 4.95537 3.89975 6.75888 3.89975 8.99482C3.89975 11.2308 5.73189 13.0343 8.00331 13.0343C10.2747 13.0343 12.1069 11.2308 12.1069 8.99482C12.1069 6.75888 10.2747 4.95537 8.00331 4.95537ZM8.00331 11.621C6.53546 11.621 5.33546 10.4433 5.33546 8.99482C5.33546 7.54638 6.53189 6.36865 8.00331 6.36865C9.47474 6.36865 10.6712 7.54638 10.6712 8.99482C10.6712 10.4433 9.47117 11.621 8.00331 11.621ZM13.2319 4.79013C13.2319 5.31396 12.8033 5.73232 12.2747 5.73232C11.7426 5.73232 11.3176 5.31045 11.3176 4.79013C11.3176 4.26982 11.7462 3.84795 12.2747 3.84795C12.8033 3.84795 13.2319 4.26982 13.2319 4.79013ZM15.9497 5.74638C15.889 4.48428 15.5962 3.36631 14.6569 2.44521C13.7212 1.52412 12.5855 1.23584 11.3033 1.17256C9.98188 1.09873 6.02117 1.09873 4.69975 1.17256C3.42118 1.23232 2.28546 1.52061 1.34618 2.4417C0.406892 3.36279 0.117606 4.48076 0.0533203 5.74287C-0.0216797 7.04365 -0.0216797 10.9425 0.0533203 12.2433C0.114035 13.5054 0.406892 14.6233 1.34618 15.5444C2.28546 16.4655 3.4176 16.7538 4.69975 16.8171C6.02117 16.8909 9.98188 16.8909 11.3033 16.8171C12.5855 16.7573 13.7212 16.469 14.6569 15.5444C15.5926 14.6233 15.8855 13.5054 15.9497 12.2433C16.0247 10.9425 16.0247 7.04716 15.9497 5.74638ZM14.2426 13.639C13.964 14.328 13.4247 14.8589 12.7212 15.1366C11.6676 15.5479 9.1676 15.453 8.00331 15.453C6.83903 15.453 4.33546 15.5444 3.28546 15.1366C2.58546 14.8624 2.04618 14.3315 1.76403 13.639C1.34618 12.6018 1.44261 10.1409 1.44261 8.99482C1.44261 7.84873 1.34975 5.38427 1.76403 4.35068C2.0426 3.66162 2.58189 3.13076 3.28546 2.85303C4.33903 2.4417 6.83903 2.53662 8.00331 2.53662C9.1676 2.53662 11.6712 2.44521 12.7212 2.85303C13.4212 3.12724 13.9605 3.6581 14.2426 4.35068C14.6605 5.38779 14.564 7.84873 14.564 8.99482C14.564 10.1409 14.6605 12.6054 14.2426 13.639Z" fill="#192031"/>
</g>
<defs>
<clipPath id="clip0_29_1630">
<rect width="16" height="18" fill="white"/>
</clipPath>
</defs>
</svg>
