<svg width="116" height="34" viewBox="0 0 116 34" fill="none" xmlns="http://www.w3.org/2000/svg">
<circle cx="16.5" cy="17" r="16.5" fill="#FF204E"/>
<ellipse cx="19" cy="21" rx="12" ry="12.5" fill="#FFFAF0"/>
<circle cx="21" cy="23.5" r="10" fill="#222831"/>
<path d="M56.375 27H52.7539L45.7695 17.8594V27H42.8164V8.10938H45.7695V17.1562L52.2617 8.10938H55.707L49.0039 17.3789L56.375 27ZM71.5625 27L70.2734 24.1289H61.332L60.043 27H56.832L65.7148 7.72266H65.8906L74.7734 27H71.5625ZM62.4805 21.5859H69.125L65.8086 14.2031L62.4805 21.5859ZM85.0625 8.10938H88.2383L79.5195 27.3867H79.3203L70.6367 8.10938H73.7891L79.4141 20.8945L85.0625 8.10938ZM90.3477 27V8.10938H93.3125V27H90.3477ZM114.816 16.6875C114.863 17.1211 114.898 17.6367 114.898 18.1641C114.898 23.7773 110.82 27.3164 105.91 27.3164C100.414 27.3164 96.0547 22.9336 96.0547 17.5781C96.0547 12.2109 100.438 7.79297 105.805 7.79297C108.184 7.80469 110.902 8.95312 112.684 10.6875L111.031 13.1484C109.555 11.6953 107.562 10.7812 105.77 10.7812C102.324 10.7812 99.0664 13.6641 99.0664 17.5781C99.0664 21.2812 102.008 24.3281 106.039 24.3281C109.285 24.3281 111.723 22.3477 111.723 19.4648V19.4062H105.875V16.6875H114.816Z" fill="#222831"/>
</svg>
